<svg xmlns="http://www.w3.org/2000/svg" xmlns:xlink="http://www.w3.org/1999/xlink" viewBox="0 0 102.11 102.11"><defs><style>.cls-1{fill:url(#linear-gradient);}.cls-2{fill:none;}.cls-2,.cls-4{stroke:#fff;stroke-miterlimit:10;stroke-width:0.25px;}.cls-3{clip-path:url(#clip-path);}.cls-4{opacity:0;fill:url(#linear-gradient-3);}.cls-5{opacity:0.35;}.cls-6{fill:#a82c37;}.cls-7{font-size:75px;fill:#fff;font-family:Roboto-Medium, Roboto;font-weight:500;}.cls-8{opacity:0.38;}.cls-9{clip-path:url(#clip-path-2);}</style><linearGradient id="linear-gradient" x1="1.62" y1="51.06" x2="100.49" y2="51.06" gradientUnits="userSpaceOnUse"><stop offset="0" stop-color="#8ab0b2"/><stop offset="1" stop-color="#5d999b"/></linearGradient><clipPath id="clip-path"><rect class="cls-1" x="1.62" y="1.62" width="98.88" height="98.87" rx="14.83"/></clipPath><linearGradient id="linear-gradient-3" x1="-13.18" y1="51.56" x2="141.09" y2="51.56" gradientTransform="matrix(1, -0.03, 0.03, 1, -1.76, 0.88)" xlink:href="#linear-gradient"/><clipPath id="clip-path-2"><path class="cls-2" d="M52.48,63.28l-3.95,4.06V80.27h-8.9V24h8.9V56.47L51.31,53,62.26,40.65H73L58.23,57.16l16.3,23.11H64.24Z"/></clipPath></defs><g id="Layer_2" data-name="Layer 2"><rect class="cls-1" x="1.62" y="1.62" width="98.88" height="98.87" rx="14.83"/><g class="cls-3"><path class="cls-4" d="M-63.44,3.52l-98.51,105.6M-59.2,3.38-157.7,109M-54.7,3.22l-98.5,105.59M-50.45,3.07-149,108.67M-46,2.92l-98.5,105.59M-41.79,2.77l-98.5,105.6m103-105.75L-135.8,108.21M-33,2.47l-98.51,105.59m103-105.75-98.5,105.6M-24.34,2.17l-98.51,105.59M-19.84,2-118.35,107.6M-15.6,1.86l-98.5,105.6M-11.18,1.71-109.69,107.3M-6.94,1.56l-98.5,105.6M-2.44,1.4-100.94,107M1.81,1.26-96.7,106.85M6.1,1.11-92.41,106.7M10.35,1-88.16,106.55M14.84.8l-98.5,105.6M19.09.66l-98.5,105.59M23.5.5-75,106.1M27.75.36-70.75,106M32.25.2-66.26,105.79M36.5.05-62,105.65M41-.1l-98.5,105.59M45.2-.25-53.3,105.34M49.7-.41l-98.51,105.6M53.94-.55-44.56,105M58.36-.71l-98.51,105.6M62.61-.85-35.9,104.74M67.1-1-31.4,104.58M71.35-1.16l-98.5,105.6M75.91-1.32l-98.5,105.6M80.16-1.46-18.35,104.13M84.66-1.62-13.85,104M88.9-1.77-9.6,103.83M93.32-1.92-5.19,103.67M97.56-2.07-.94,103.53m103-105.76L3.56,103.37M106.31-2.37,7.8,103.22m103-105.75-98.5,105.6M115-2.68l-98.5,105.6m103-105.75L21,102.76M123.76-3,25.25,102.62M128.17-3.13,29.67,102.46M132.42-3.28,33.91,102.31m103-105.75L38.41,102.16M141.16-3.58,42.66,102M145.45-3.73,47,101.86M149.7-3.88,51.19,101.71M154.2-4,55.69,101.56M158.44-4.18,59.94,101.41M162.86-4.34,64.35,101.26M167.11-4.48,68.6,101.11M171.6-4.64,73.1,101M175.85-4.79l-98.5,105.6m103-105.75L81.8,100.65M184.55-5.09,86.05,100.5m103-105.75-98.5,105.6M193.3-5.39,94.79,100.2M197.71-5.55l-98.5,105.6M202-5.7,103.45,99.9m103-105.75L108,99.74M210.7-6,112.2,99.6"/></g></g><g id="Layer_3" data-name="Layer 3"><g class="cls-5"><path class="cls-6" d="M52.48,63.28l-3.95,4.06V80.27h-8.9V24h8.9V56.47L51.31,53,62.26,40.65H73L58.23,57.16l16.3,23.11H64.24Z"/></g><text class="cls-7" transform="translate(31.29 77.18)">k</text><g class="cls-8"><g class="cls-9"><path class="cls-2" d="M-64.26,3.49l-98.47,105.63M-60,3.34-158.48,109m103-105.79L-154,108.81M-51.27,3l-98.47,105.63M-46.86,2.88l-98.47,105.63M-42.61,2.73l-98.47,105.63m103-105.79L-136.58,108.2M-33.86,2.42l-98.47,105.63M-29.41,2.27l-98.47,105.62M-25.16,2.12l-98.47,105.62M-20.66,2l-98.47,105.63M-16.42,1.81l-98.47,105.63M-12,1.66l-98.47,105.62M-7.75,1.51l-98.47,105.62M-3.26,1.35-101.73,107M1,1.2-97.48,106.83M5.28,1.05-93.19,106.68M9.53.9-88.94,106.53M14,.74-84.45,106.37M18.27.59-80.2,106.22M22.69.44-75.78,106.07M26.93.29-71.54,105.92M31.43.13-67,105.76M35.68,0-62.79,105.61M40.13-.17-58.34,105.46M44.38-.32-54.09,105.31M48.88-.48-49.59,105.15M53.12-.63-45.35,105M57.54-.78-40.93,104.84M61.79-.93-36.68,104.7M66.28-1.09-32.19,104.54M70.53-1.24-27.94,104.39M75.09-1.4-23.38,104.23M79.34-1.55-19.13,104.08M83.83-1.7-14.63,103.92M88.08-1.85-10.39,103.77M92.5-2-6,103.62M96.74-2.16-1.73,103.47m103-105.78L2.77,103.31M105.49-2.46,7,103.16M109.94-2.62,11.47,103M114.19-2.77,15.72,102.86m103-105.79L20.22,102.7M122.94-3.08,24.47,102.55M127.35-3.23,28.88,102.4M131.6-3.38,33.13,102.25m103-105.79L37.62,102.09M140.34-3.69,41.87,101.94M144.63-3.84,46.16,101.79M148.88-4,50.41,101.64m103-105.78L54.91,101.48M157.62-4.29,59.15,101.34M162-4.45,63.57,101.18M166.28-4.6,67.81,101m103-105.78L72.31,100.87M175-4.9,76.56,100.72M179.48-5.06,81,100.57M183.73-5.21,85.26,100.42m103-105.79L89.76,100.26M192.48-5.51,94,100.11M196.89-5.67,98.42,100M201.14-5.82,102.67,99.81M205.64-6,107.17,99.65M209.88-6.12,111.41,99.5"/></g><path class="cls-2" d="M52.48,63.28l-3.95,4.06V80.27h-8.9V24h8.9V56.47L51.31,53,62.26,40.65H73L58.23,57.16l16.3,23.11H64.24Z"/></g></g></svg>